<?xml version="1.0" encoding="UTF-8" standalone="no"?>
<!-- Created with Inkscape (http://www.inkscape.org/) -->

<svg
   xmlns:dc="http://purl.org/dc/elements/1.1/"
   xmlns:cc="http://creativecommons.org/ns#"
   xmlns:rdf="http://www.w3.org/1999/02/22-rdf-syntax-ns#"
   xmlns:svg="http://www.w3.org/2000/svg"
   xmlns="http://www.w3.org/2000/svg"
   xmlns:sodipodi="http://sodipodi.sourceforge.net/DTD/sodipodi-0.dtd"
   xmlns:inkscape="http://www.inkscape.org/namespaces/inkscape"
   width="903.99475"
   height="314.25964"
   id="svg3974"
   version="1.1"
   inkscape:version="0.92.5 (2060ec1f9f, 2020-04-08)"
   sodipodi:docname="me.svg">
  <defs
     id="defs3976" />
  <sodipodi:namedview
     id="base"
     pagecolor="#ffffff"
     bordercolor="#666666"
     borderopacity="1.0"
     inkscape:pageopacity="0.0"
     inkscape:pageshadow="2"
     inkscape:zoom="1"
     inkscape:cx="504.21776"
     inkscape:cy="150.65073"
     inkscape:document-units="px"
     inkscape:current-layer="layer1"
     showgrid="false"
     fit-margin-top="0"
     fit-margin-left="0"
     fit-margin-right="0"
     fit-margin-bottom="0"
     inkscape:window-width="1848"
     inkscape:window-height="1016"
     inkscape:window-x="72"
     inkscape:window-y="27"
     inkscape:window-maximized="1" />
  <metadata
     id="metadata3979">
    <rdf:RDF>
      <cc:Work
         rdf:about="">
        <dc:format>image/svg+xml</dc:format>
        <dc:type
           rdf:resource="http://purl.org/dc/dcmitype/StillImage" />
        <dc:title></dc:title>
      </cc:Work>
    </rdf:RDF>
  </metadata>
  <g
     inkscape:label="Layer 1"
     inkscape:groupmode="layer"
     id="layer1"
     transform="translate(232.48186,-685.88281)">
    <g
       id="g930"
       transform="translate(5.4882813e-6,-1.1080422e-5)">
      <path
         sodipodi:nodetypes="ccscc"
         inkscape:connector-curvature="0"
         id="path908-7"
         d="m 213.51288,685.88284 v 314.00004 c 0,0 171.75,12.99992 268.94186,-145.00004 97.19186,-158 106.51163,-169 189.05814,-169 z"
         style="fill:#fff94f;fill-opacity:1;stroke:none;stroke-width:1.15386105px;stroke-linecap:butt;stroke-linejoin:miter;stroke-opacity:1" />
      <path
         sodipodi:nodetypes="ccscc"
         inkscape:connector-curvature="0"
         id="path908-7-5"
         d="m 225.51814,685.88284 v 314.00004 c 0,0 -171.75,12.99992 -268.94186,-145.00004 -97.19186,-158 -106.51163,-169 -189.05814,-169 z"
         style="fill:#fff94f;fill-opacity:1;stroke:none;stroke-width:1.15386105px;stroke-linecap:butt;stroke-linejoin:miter;stroke-opacity:1" />
    </g>
    <g
       id="g1020"
       transform="matrix(0.82409475,0,0,0.82409475,44.667722,136.96733)">
      <path
         sodipodi:nodetypes="ccccccccccccsccccccc"
         inkscape:connector-curvature="0"
         id="path3090"
         d="m 314.01218,820.74364 c -2.40364,-19.18601 -5.53789,-50.2482 -8.33479,-57.33325 -14.09972,-32.58844 -60.18107,-59.99391 -94.86507,-64.30418 -7.10309,-0.5144 -14.07682,-0.6407 -20.71069,0.25257 -32.74991,7.19265 -54.09807,27.19634 -66.67832,61.37437 -4.04279,9.34395 -4.94547,19.83837 -6.16269,31.06603 -2.29339,5.27927 -3.84991,10.2 -4.19266,15.15417 -0.0294,3.84728 0.36724,6.84259 1.01027,9.34506 1.21581,3.42765 2.83951,9.58998 3.78855,14.64904 -1.73476,11.58421 -4.62545,24.58674 -4.29369,38.64311 0.93548,8.97281 -0.12743,26.77053 6.31424,44.95736 1.55691,6.34216 23.66884,32.51852 26.26722,47.98819 3.60158,7.09531 10.29468,13.67022 18.27234,15.84246 11.90793,3.24243 24.69162,2.91258 38.05065,1.02917 35.14515,-10.97805 70.91675,-34.8439 81.57991,-63.59697 l 8.55367,-22.05774 c 3.45179,0.51654 6.19637,0.25188 9.88389,-1.93636 3.30188,-4.15409 12.72665,-15.57528 16.41703,-24.7518 8.49998,-21.59656 8.94892,-39.44136 3.20762,-45.43724 -1.37571,-0.9368 -4.85667,-1.87054 -8.10748,-0.88399 z"
         style="fill:#fff94f;fill-opacity:1;stroke:#000000;stroke-width:2.12158298;stroke-linecap:butt;stroke-linejoin:round;stroke-miterlimit:4;stroke-dasharray:none;stroke-opacity:1" />
      <path
         sodipodi:nodetypes="cccc"
         inkscape:connector-curvature="0"
         id="path3092"
         d="m 318.81053,858.32407 5.28745,-15.61445 c -0.25331,-12.88636 -3.16256,-16.35612 -8.26163,-12.06196 6.96575,8.882 0.52956,17.897 2.97418,27.67641 z"
         style="fill:#000000;fill-opacity:0.09756099;stroke:#000000;stroke-width:2.12158298;stroke-linecap:butt;stroke-linejoin:round;stroke-miterlimit:4;stroke-dasharray:none;stroke-opacity:1" />
      <path
         sodipodi:nodetypes="cccccccccc"
         inkscape:connector-curvature="0"
         id="path3094"
         d="m 304.8484,847.1709 c 0.53932,-3.04262 -0.29776,-6.32813 3.71772,-8.75732 6.16558,-0.0487 3.81659,3.62173 5.0396,10.49225 -1.08575,6.98319 3.91041,16.19642 -3.38727,20.90191 -1.21308,1.2172 -3.19851,0.37484 -5.03959,-0.0826 -1.074,2.37219 -2.14802,3.55431 -3.22202,4.6265 -2.19563,0.96531 -7.56718,1.96193 0.0826,-6.85714 2.26848,-5.59832 0.031,-8.35076 -1.73495,-11.40103 -0.12574,-2.70717 0.4106,-5.08357 1.81756,-7.35284 1.18984,0.43579 1.96851,-0.27749 2.72635,-1.5697 z"
         style="fill:#000000;fill-opacity:0.09756099;stroke:#000000;stroke-width:2.12158298;stroke-linecap:butt;stroke-linejoin:round;stroke-miterlimit:4;stroke-dasharray:none;stroke-opacity:1" />
      <path
         sodipodi:nodetypes="cscccccccc"
         inkscape:connector-curvature="0"
         id="path3096"
         d="m 313.68833,820.98157 c -8.10208,3.33762 -16.10499,11.99305 -16.88152,15.8287 -1.04416,5.15771 -2.06115,3.00398 -6.08578,3.66872 -6.24216,-21.05109 -11.29106,-46.11465 -23.29775,-52.87435 -2.57126,-2.84511 -4.22359,-22.79937 -7.10498,-32.05507 -0.20458,-4.03009 -1.89656,-4.95407 -2.64374,-6.27883 -13.70657,-11.20473 -13.97481,-9.72692 -24.78484,-12.39242 -10.06707,-2.4005 -32.06535,-7.24264 -47.32488,-2.43354 -11.65097,0.74267 -20.28672,-3.63008 -25.44579,-2.31326 -20.61717,0.22434 -33.27892,21.76152 -39.91778,39.28035"
         style="fill:none;stroke:#000000;stroke-width:2.12158298;stroke-linecap:butt;stroke-linejoin:round;stroke-miterlimit:4;stroke-dasharray:none;stroke-opacity:1" />
      <path
         sodipodi:nodetypes="cccc"
         inkscape:connector-curvature="0"
         id="path3098"
         d="m 153.52638,797.84904 c -34.32369,1.75084 -29.81631,7.78484 -39.27346,15.86231 -1.00666,-6.40038 -1.3936,-20.12201 31.7246,-25.28056 5.59182,-0.33187 7.78908,3.81294 7.54886,9.41825 z"
         style="fill:#000000;fill-opacity:0.76585364;stroke:#000000;stroke-width:2.12158298;stroke-linecap:butt;stroke-linejoin:round;stroke-miterlimit:4;stroke-dasharray:none;stroke-opacity:1" />
      <path
         sodipodi:nodetypes="cccc"
         inkscape:connector-curvature="0"
         id="path3100"
         d="m 189.68514,780.90552 c -2.22718,0.45531 -5.53913,3.14522 -3.27144,10.51532 32.32279,2.02241 38.48733,-14.884 65.89602,8.64592 -5.14148,-25.18213 -43.09464,-27.52944 -62.62458,-19.16124 z"
         style="fill:#000000;fill-opacity:0.76585364;stroke:#000000;stroke-width:2.12158298;stroke-linecap:butt;stroke-linejoin:round;stroke-miterlimit:4;stroke-dasharray:none;stroke-opacity:1" />
      <path
         sodipodi:nodetypes="cscscc"
         inkscape:connector-curvature="0"
         id="path3123"
         d="m 157.90549,822.26579 c -2.87484,-3.83009 -6.95954,-5.33779 -9.94871,-5.73448 -11.48041,-1.52354 -15.24535,2.80995 -20.36043,8.62706 -1.05983,0.93212 1.45651,5.64584 2.37139,5.95968 7.24252,2.4844 14.90511,1.97183 24.0054,-1.8787 2.18725,-2.03237 3.029,-4.51323 3.93235,-6.97356 z"
         style="fill:none;stroke:#000000;stroke-width:2.12158298;stroke-linecap:butt;stroke-linejoin:round;stroke-miterlimit:4;stroke-dasharray:none;stroke-opacity:1" />
      <path
         sodipodi:nodetypes="csccc"
         inkscape:connector-curvature="0"
         id="path3127"
         d="m 196.70385,822.30343 c 18.09242,-20.38365 33.19652,-14.18875 40.41578,-8.44281 2.33584,1.85911 2.10459,3.1356 2.04892,5.96433 -1.89673,4.42856 -17.4235,8.39315 -37.74973,5.13395 -2.04437,-0.27322 -3.99243,-1.94165 -4.71497,-2.65547 z"
         style="fill:#fff94f;fill-opacity:1;stroke:#000000;stroke-width:2.12158298;stroke-linecap:butt;stroke-linejoin:round;stroke-miterlimit:4;stroke-dasharray:none;stroke-opacity:1" />
      <path
         sodipodi:nodetypes="ccc"
         inkscape:connector-curvature="0"
         id="path3897"
         d="m 154.0601,823.27164 c -0.89472,-6.73196 -12.84145,-7.85732 -14.02716,0.93467 3.84142,9.18411 13.741,5.03863 14.02716,-0.93467 z"
         style="fill:#000000;fill-opacity:0.39024389;stroke:#000000;stroke-width:2.12158298;stroke-linecap:butt;stroke-linejoin:round;stroke-miterlimit:4;stroke-dasharray:none;stroke-opacity:1" />
      <path
         sodipodi:nodetypes="ccc"
         inkscape:connector-curvature="0"
         id="path3899"
         d="m 214.45456,818.17648 c 2.24846,-11.11463 15.47627,-10.48915 17.87605,-1.05153 0.12801,7.64692 -16.04904,11.34151 -17.87605,1.05153 z"
         style="fill:#000000;fill-opacity:0.39024389;stroke:#000000;stroke-width:2.12158298;stroke-linecap:butt;stroke-linejoin:round;stroke-miterlimit:4;stroke-dasharray:none;stroke-opacity:1" />
      <path
         sodipodi:nodetypes="csc"
         inkscape:connector-curvature="0"
         id="path3901"
         d="m 208.27011,909.5461 c -18.98625,-3.22847 -35.24327,2.46667 -50.94942,1.70717 -4.24761,-0.2054 -8.45492,-0.88287 -12.66503,-2.33663"
         style="fill:none;stroke:#000000;stroke-width:2.12158298;stroke-linecap:butt;stroke-linejoin:miter;stroke-miterlimit:4;stroke-dasharray:none;stroke-opacity:1" />
      <path
         sodipodi:nodetypes="ccc"
         inkscape:connector-curvature="0"
         id="path3899-9"
         d="m 217.97023,817.79926 c 1.36409,-6.74303 9.38912,-6.36355 10.84502,-0.63795 0.0777,4.63923 -9.73662,6.88066 -10.84502,0.63795 z"
         style="display:inline;fill:#000000;fill-opacity:1;stroke:#000000;stroke-width:2.12158298;stroke-linecap:butt;stroke-linejoin:round;stroke-miterlimit:4;stroke-dasharray:none;stroke-opacity:1" />
      <path
         sodipodi:nodetypes="ccc"
         inkscape:connector-curvature="0"
         id="path3897-6"
         d="m 151.02155,823.47752 c -0.50709,-3.81541 -7.27805,-4.45323 -7.95007,0.52975 2.17717,5.20519 7.78788,2.8557 7.95007,-0.52975 z"
         style="display:inline;fill:#000000;fill-opacity:1;stroke:#000000;stroke-width:2.12158298;stroke-linecap:butt;stroke-linejoin:round;stroke-miterlimit:4;stroke-dasharray:none;stroke-opacity:1" />
      <path
         sodipodi:nodetypes="cccccccsccccccccc"
         inkscape:connector-curvature="0"
         id="path3090-8"
         d="m 120.06413,770.09084 3.35918,-9.3577 c 12.58025,-34.17802 33.92841,-54.18172 66.67832,-61.37437 6.63387,-0.89327 13.6076,-0.76696 20.71069,-0.25256 34.684,4.31026 80.76535,31.71574 94.86507,64.30417 2.7969,7.08506 5.93115,38.14724 8.33479,57.33325 l -0.32385,0.23793 c -8.10208,3.33762 -16.10499,11.99306 -16.88152,15.82871 -1.04416,5.15771 -2.06115,3.00398 -6.08578,3.66871 -6.24216,-21.05108 -11.29106,-46.11464 -23.29775,-52.87435 -2.57126,-2.84511 -4.22359,-22.79936 -7.10498,-32.05506 -0.20458,-4.03009 -1.89656,-4.95407 -2.64374,-6.27883 -13.70657,-11.20473 -13.97481,-9.72692 -24.78484,-12.39242 -10.06707,-2.4005 -32.06535,-7.24265 -47.32488,-2.43354 -11.65097,0.74267 -20.28672,-3.63009 -25.44579,-2.31326 -20.61717,0.22433 -33.27892,21.76151 -39.91778,39.28034 z"
         style="display:inline;fill:#000000;fill-opacity:0.14634148;stroke:#000000;stroke-width:2.12158298;stroke-linecap:butt;stroke-linejoin:round;stroke-miterlimit:4;stroke-dasharray:none;stroke-opacity:1" />
      <circle
         r="31.36615"
         cx="129.69582"
         cy="822.78381"
         id="path849"
         style="opacity:1;vector-effect:none;fill:none;fill-opacity:1;stroke:#000000;stroke-width:2;stroke-linecap:round;stroke-linejoin:round;stroke-miterlimit:4;stroke-dasharray:none;stroke-dashoffset:0;stroke-opacity:1;paint-order:normal" />
      <circle
         r="35.542675"
         cy="820.66241"
         cx="211.72018"
         id="path849-3"
         style="opacity:1;vector-effect:none;fill:none;fill-opacity:1;stroke:#000000;stroke-width:2;stroke-linecap:round;stroke-linejoin:round;stroke-miterlimit:4;stroke-dasharray:none;stroke-dashoffset:0;stroke-opacity:1;paint-order:normal" />
      <path
         sodipodi:nodetypes="ccccccccc"
         inkscape:connector-curvature="0"
         id="path3102"
         d="m 162.81266,813.1525 c -8.98568,16.38137 -9.25122,24.6435 -13.31941,36.92047 -2.00377,3.17213 -3.83174,9.16371 -3.29979,11.66951 -4.14925,2.58251 -2.38873,9.87536 1.89775,12.63256 2.37586,-3.51988 6.92473,-5.61043 11.21634,3.27144 4.46776,2.46123 6.23368,0.03 8.99643,-0.35052 0.12107,-9.10039 11.01778,-10.17686 16.94136,-1.05152 7.68347,-1.50813 8.07629,-6.11155 8.41225,-14.95514 -3.28677,-7.13704 -9.11548,-10.80593 -14.48777,-5.84184"
         style="fill:#fff94f;fill-opacity:1;stroke:#000000;stroke-width:2.12158298;stroke-linecap:butt;stroke-linejoin:round;stroke-miterlimit:4;stroke-dasharray:none;stroke-opacity:1" />
      <path
         sodipodi:nodetypes="ccccc"
         inkscape:connector-curvature="0"
         id="path3941"
         d="m 158.42943,876.96559 c -3.24132,-1.66045 -6.48261,-3.39551 -9.72393,-2.82878 l 2.82878,-2.47518 2.47518,0.3536 c 3.04159,0.88596 3.66587,2.69191 4.41997,4.95036 z"
         style="fill:#000000;fill-opacity:0.91219512;stroke:none;stroke-width:1.41438866" />
      <path
         sodipodi:nodetypes="ccccc"
         inkscape:connector-curvature="0"
         id="path3943"
         d="m 168.15335,876.78879 c 5.59862,-1.65645 11.19725,-1.75586 16.79586,-1.06079 l -4.24316,-3.71277 c -3.97045,-2.65478 -7.40317,-2.35214 -10.43112,0.1768 z"
         style="fill:#000000;fill-opacity:0.91219512;stroke:none;stroke-width:1.41438866" />
      <path
         inkscape:connector-curvature="0"
         id="path883"
         d="m 179.72361,805.63647 -22.80419,1.59099"
         style="fill:none;stroke:#000000;stroke-width:2;stroke-linecap:butt;stroke-linejoin:miter;stroke-miterlimit:4;stroke-dasharray:none;stroke-opacity:1" />
      <path
         inkscape:connector-curvature="0"
         id="path887"
         d="m 244.3355,806.60874 69.67668,14.13489"
         style="fill:none;stroke:#000000;stroke-width:2;stroke-linecap:butt;stroke-linejoin:miter;stroke-miterlimit:4;stroke-dasharray:none;stroke-opacity:1" />
      <path
         sodipodi:nodetypes="cc"
         inkscape:connector-curvature="0"
         id="path889"
         d="m 98.583111,817.65729 16.200949,0.90847"
         style="fill:none;stroke:#000000;stroke-width:2;stroke-linecap:butt;stroke-linejoin:miter;stroke-miterlimit:4;stroke-dasharray:none;stroke-opacity:1" />
    </g>
  </g>
</svg>
