<?xml version="1.0" encoding="UTF-8" standalone="no"?>
<svg
   xmlns:dc="http://purl.org/dc/elements/1.1/"
   xmlns:cc="http://creativecommons.org/ns#"
   xmlns:rdf="http://www.w3.org/1999/02/22-rdf-syntax-ns#"
   xmlns:svg="http://www.w3.org/2000/svg"
   xmlns="http://www.w3.org/2000/svg"
   xmlns:sodipodi="http://sodipodi.sourceforge.net/DTD/sodipodi-0.dtd"
   xmlns:inkscape="http://www.inkscape.org/namespaces/inkscape"
   enable-background="new 0 0 512 512"
   height="512px"
   id="Layer_1"
   version="1.1"
   viewBox="0 0 512 512"
   width="512px"
   xml:space="preserve"
   inkscape:version="0.91 r13725"
   sodipodi:docname="github.svg"><metadata
     id="metadata11"><rdf:RDF><cc:Work
         rdf:about=""><dc:format>image/svg+xml</dc:format><dc:type
           rdf:resource="http://purl.org/dc/dcmitype/StillImage" /><dc:title /></cc:Work></rdf:RDF></metadata><defs
     id="defs9" /><sodipodi:namedview
     pagecolor="#ffffff"
     bordercolor="#666666"
     borderopacity="1"
     objecttolerance="10"
     gridtolerance="10"
     guidetolerance="10"
     inkscape:pageopacity="0"
     inkscape:pageshadow="2"
     inkscape:window-width="1280"
     inkscape:window-height="660"
     id="namedview7"
     showgrid="false"
     inkscape:zoom="0.4609375"
     inkscape:cx="220.18243"
     inkscape:cy="256"
     inkscape:window-x="-8"
     inkscape:window-y="-8"
     inkscape:window-maximized="1"
     inkscape:current-layer="Layer_1" /><g
     id="g3"
     transform="translate(10.889626,-35.115129)"><path
       d="m 311.099,457.568 0,-62.118 c 0.001,-20.873 -6.811,-34.465 -14.966,-41.276 l 0,0 c 49.885,-5.891 102.942,-24.029 102.942,-110.192 0,-24.49 -8.624,-44.448 -22.67,-59.869 2.266,-5.89 9.515,-28.114 -2.734,-58.947 0,0 -18.139,-5.898 -60.759,22.669 -18.139,-4.983 -38.09,-8.163 -56.682,-8.163 -19.053,0 -39.011,3.18 -56.697,8.163 -43.082,-28.567 -61.22,-22.669 -61.22,-22.669 -12.241,30.833 -4.983,53.057 -2.718,58.947 -14.061,15.42 -22.677,35.379 -22.677,59.869 0,86.163 53.057,104.301 102.942,110.192 -6.344,5.452 -12.241,15.873 -14.507,30.387 -12.702,5.438 -45.808,15.873 -65.758,-18.592 0,0 -11.795,-21.31 -34.012,-22.669 0,0 -22.224,-0.453 -1.813,13.592 0,0 14.96,6.812 24.943,32.653 0,0 13.6,43.089 76.179,29.48 l 0,38.543"
       id="path5"
       style="clip-rule:evenodd;fill:#ffffff;fill-opacity:1;fill-rule:evenodd"
       inkscape:connector-curvature="0"
       sodipodi:nodetypes="ccccscccscccscccccccc" /></g></svg>