<?xml version="1.0" encoding="UTF-8" standalone="no"?>
<svg
   xmlns:dc="http://purl.org/dc/elements/1.1/"
   xmlns:cc="http://creativecommons.org/ns#"
   xmlns:rdf="http://www.w3.org/1999/02/22-rdf-syntax-ns#"
   xmlns:svg="http://www.w3.org/2000/svg"
   xmlns="http://www.w3.org/2000/svg"
   xmlns:sodipodi="http://sodipodi.sourceforge.net/DTD/sodipodi-0.dtd"
   xmlns:inkscape="http://www.inkscape.org/namespaces/inkscape"
   enable-background="new 0 0 512 512"
   height="512px"
   id="Layer_1"
   version="1.1"
   viewBox="0 0 512 512"
   width="512px"
   xml:space="preserve"
   inkscape:version="0.91 r13725"
   sodipodi:docname="twitter.svg"><metadata
     id="metadata13"><rdf:RDF><cc:Work
         rdf:about=""><dc:format>image/svg+xml</dc:format><dc:type
           rdf:resource="http://purl.org/dc/dcmitype/StillImage" /></cc:Work></rdf:RDF></metadata><defs
     id="defs11" /><sodipodi:namedview
     pagecolor="#ffffff"
     bordercolor="#666666"
     borderopacity="1"
     objecttolerance="10"
     gridtolerance="10"
     guidetolerance="10"
     inkscape:pageopacity="0"
     inkscape:pageshadow="2"
     inkscape:window-width="1280"
     inkscape:window-height="660"
     id="namedview9"
     showgrid="false"
     inkscape:zoom="0.4609375"
     inkscape:cx="385.43168"
     inkscape:cy="292.57984"
     inkscape:window-x="-8"
     inkscape:window-y="-8"
     inkscape:window-maximized="1"
     inkscape:current-layer="Layer_1" /><g
     id="g3"><path
       clip-rule="evenodd"
       d="M276.635,137.407c-9.077,6.351-15.873,15.42-20.865,25.396   l-2.265,5.898c-1.359,4.077-2.273,8.163-2.726,12.241c-0.453,2.265-0.453,4.085-0.906,5.898v3.625l0.453,5.898l0.906,7.71h-0.453   h-2.719h-1.813c-22.224-0.453-43.987-5.445-63.04-14.061l-11.334-5.437c-2.265-0.914-4.078-2.273-6.351-3.632   c-12.694-7.257-24.028-16.78-34.012-27.208c-6.343-6.804-12.241-14.061-17.232-21.771c-5.438,10.437-8.616,22.677-8.616,35.379   c0,4.531,0.453,9.069,1.359,13.6c0,2.265,0.453,4.085,0.914,5.898c4.078,13.6,11.334,25.849,21.31,34.918l4.992,4.539l-6.351-1.367   c-8.163-2.266-16.326-4.984-24.036-8.164c0.906,16.327,7.257,31.293,17.232,43.089c9.522,11.327,22.224,19.951,36.73,24.028   l-16.779,0.906l-14.054-0.453c10.429,25.403,34.465,43.995,63.033,46.261c-26.302,19.498-58.955,30.388-93.873,30.388   c25.849,15.873,55.33,25.841,87.521,27.653h20.865c99.31-5.438,177.77-87.522,177.77-188.199v-9.522   c3.625-3.171,7.25-6.343,10.89-9.975c8.608-7.71,16.326-16.78,22.67-26.302c-10.437,6.804-22.67,10.429-36.277,10.429h-0.453   h-0.453h0.453c12.232-8.163,21.763-20.404,26.747-34.465c-9.515,4.992-20.404,8.616-31.294,11.796l-1.359,0.453l-8.155,1.812   c-11.795-12.702-28.575-20.865-47.167-20.865h-0.452h-0.906c-4.984,0-9.983,0.453-14.968,1.367   c-7.249,1.812-14.514,4.984-20.404,8.616L276.635,137.407z"
       fill="#FFFFFF"
       fill-rule="evenodd"
       id="path7" /></g></svg>